<svg aria-hidden="true" style="width:0;height:0;position:absolute;overflow:hidden" xmlns="http://www.w3.org/2000/svg"><defs><symbol id="icon-carbon_location-filled" viewBox="0 0 32 32"><path d="M16 2A11.018 11.018 0 0 0 5 13a10.892 10.892 0 0 0 2.216 6.6s.3.395.349.452L16 30l8.439-9.953c.044-.053.345-.447.345-.447l.001-.003A10.89 10.89 0 0 0 27 13 11.018 11.018 0 0 0 16 2zm0 15a4.002 4.002 0 0 1-3.923-4.78 4.006 4.006 0 0 1 3.143-3.143 3.996 3.996 0 0 1 3.607 6.75A4.002 4.002 0 0 1 16 17z"/></symbol><symbol id="icon-Bookmark" viewBox="0 0 33 32"><path fill="none" stroke="#70778b" style="stroke:var(--color1,#70778b)" stroke-width="2" d="M8.5 8a2.667 2.667 0 0 1 2.667-2.667h10.667A2.667 2.667 0 0 1 24.501 8v15.993c0 1.166-1.391 1.77-2.243.975l-4.847-4.525a1.334 1.334 0 0 0-1.82 0l-4.847 4.525c-.852.796-2.243.191-2.243-.975V8z"/></symbol><symbol id="icon-Shape" viewBox="0 0 53 32"><path fill="#545a6d" style="fill:var(--color1,#545a6d)" opacity=".6" d="m6.267 0 20.4 19.795L47.067 0l6.267 6.124L26.667 32 0 6.124 6.267 0z"/></symbol></defs></svg>