<svg aria-hidden="true" style="position: absolute; width: 0; height: 0; overflow: hidden;" version="1.1" xmlns="http://www.w3.org/2000/svg" xmlns:xlink="http://www.w3.org/1999/xlink">
<defs>
<symbol id="icon-carbon_location-filled" viewBox="0 0 32 32">
<path d="M16 2c-2.916 0.003-5.712 1.163-7.774 3.226s-3.222 4.858-3.226 7.774c-0.003 2.383 0.775 4.702 2.216 6.6 0 0 0.3 0.395 0.349 0.452l8.435 9.948 8.439-9.953c0.044-0.053 0.345-0.447 0.345-0.447l0.001-0.003c1.44-1.897 2.218-4.215 2.215-6.597-0.003-2.916-1.163-5.712-3.226-7.774s-4.858-3.222-7.774-3.226zM16 17c-0.791 0-1.565-0.235-2.222-0.674s-1.171-1.064-1.473-1.795c-0.303-0.731-0.382-1.535-0.228-2.311s0.535-1.489 1.095-2.048c0.559-0.559 1.272-0.94 2.048-1.095s1.58-0.075 2.311 0.228 1.356 0.815 1.795 1.473c0.44 0.658 0.674 1.431 0.674 2.222-0.001 1.060-0.423 2.077-1.173 2.827s-1.766 1.172-2.827 1.173z"></path>
</symbol>
<symbol id="icon-Bookmark" viewBox="0 0 33 32">
<path fill="none" stroke="#70778b" style="stroke: var(--color1, #70778b)" stroke-linejoin="miter" stroke-linecap="butt" stroke-miterlimit="4" stroke-width="2" d="M8.5 8c0-1.473 1.194-2.667 2.667-2.667h10.667c1.473 0 2.667 1.194 2.667 2.667v15.993c0 1.166-1.391 1.77-2.243 0.975l-4.847-4.525c-0.512-0.478-1.308-0.478-1.82 0l-4.847 4.525c-0.852 0.796-2.243 0.191-2.243-0.975v-15.993z"></path>
</symbol>
<symbol id="icon-Shape" viewBox="0 0 53 32">
<path fill="#545a6d" style="fill: var(--color1, #545a6d)" opacity="0.6" d="M6.267 0l20.4 19.795 20.4-19.795 6.267 6.124-26.667 25.876-26.667-25.876 6.267-6.124z"></path>
</symbol>
</defs>
</svg>
